<svg height='200' width='200'  fill="#B36AE2" xmlns="http://www.w3.org/2000/svg" xmlns:xlink="http://www.w3.org/1999/xlink" version="1.1" x="0px" y="0px" viewBox="0 0 100 100" style="enable-background:new 0 0 100 100;" xml:space="preserve"><g><path d="M50,46.9c0,0.3,0.2,0.5,0.5,0.5c0.3,0,0.5-0.3,0.5-0.5c0-0.3-0.2-0.5-0.5-0.5C50.3,46.3,50,46.5,50,46.9L50,46.9z"></path><path d="M50,48.9c0,0.3,0.2,0.5,0.5,0.5c0.3,0,0.5-0.3,0.5-0.5c0-0.3-0.2-0.5-0.5-0.5C50.3,48.3,50,48.5,50,48.9L50,48.9z"></path><path d="M50.5,45.4c0.3,0,0.5-0.2,0.5-0.5c0-0.3-0.2-0.5-0.5-0.5c-0.3,0-0.5,0.2-0.5,0.5v0C50,45.2,50.3,45.4,50.5,45.4z"></path><path d="M18.7,66.2l-6.2-4.3c-0.2-0.1-0.4-0.1-0.6,0l-6.2,4.3c-0.2,0.1-0.2,0.3-0.2,0.4v6.7c0,0.2,0.1,0.3,0.2,0.4l6.2,4.3   c0.1,0.1,0.2,0.1,0.3,0.1s0.2,0,0.3-0.1l6.2-4.3c0.1-0.1,0.2-0.2,0.2-0.4v-6.7C18.9,66.6,18.9,66.4,18.7,66.2z M12.2,62.9l5.4,3.7   l-5.4,3.7l-5.4-3.7L12.2,62.9z M6.4,67.6l5.2,3.6v5.5l-5.2-3.6V67.6z M12.7,76.7v-5.5l5.2-3.6v5.5L12.7,76.7z"></path></g><g><g><circle cx="12.2" cy="85.1" r="0.5"></circle><circle cx="12.2" cy="83.1" r="0.5"></circle><circle cx="12.2" cy="87" r="0.5"></circle><circle cx="12.2" cy="89" r="0.5"></circle><circle cx="14.3" cy="89" r="0.5"></circle><circle cx="16.3" cy="89" r="0.5"></circle><circle cx="18.4" cy="89" r="0.5"></circle><circle cx="20.4" cy="89" r="0.5"></circle></g><g><circle cx="50.6" cy="85" r="0.5"></circle><circle cx="50.6" cy="83" r="0.5"></circle><circle cx="50.6" cy="87" r="0.5"></circle><circle cx="50.6" cy="89" r="0.5"></circle><circle cx="48.5" cy="89" r="0.5"></circle><circle cx="46.5" cy="89" r="0.5"></circle><circle cx="44.4" cy="89" r="0.5"></circle><circle cx="42.4" cy="89" r="0.5"></circle></g></g><g><g><circle cx="12.2" cy="54.8" r="0.5"></circle><circle cx="12.2" cy="56.8" r="0.5"></circle><circle cx="12.2" cy="52.8" r="0.5"></circle><circle cx="12.2" cy="50.8" r="0.5"></circle><circle cx="14.3" cy="50.8" r="0.5"></circle><circle cx="16.3" cy="50.8" r="0.5"></circle><circle cx="18.4" cy="50.8" r="0.5"></circle><circle cx="20.4" cy="50.8" r="0.5"></circle></g><g><circle cx="50.6" cy="54.9" r="0.5"></circle><circle cx="50.6" cy="56.8" r="0.5"></circle><circle cx="50.6" cy="52.9" r="0.5"></circle><circle cx="50.5" cy="50.9" r="0.5"></circle><circle cx="48.5" cy="50.9" r="0.5"></circle><circle cx="46.4" cy="50.9" r="0.5"></circle><circle cx="44.4" cy="50.9" r="0.5"></circle><circle cx="42.4" cy="50.9" r="0.5"></circle></g></g><g><g><circle cx="50.5" cy="46.9" r="0.5"></circle><circle cx="50.5" cy="44.9" r="0.5"></circle><circle cx="50.5" cy="48.9" r="0.5"></circle><circle cx="52.6" cy="50.9" r="0.5"></circle><circle cx="54.6" cy="50.9" r="0.5"></circle><circle cx="56.7" cy="50.9" r="0.5"></circle><circle cx="58.7" cy="50.9" r="0.5"></circle></g><g><circle cx="88.9" cy="46.9" r="0.5"></circle><circle cx="88.9" cy="44.9" r="0.5"></circle><circle cx="88.9" cy="48.8" r="0.5"></circle><circle cx="88.9" cy="50.8" r="0.5"></circle><circle cx="86.8" cy="50.8" r="0.5"></circle><circle cx="84.8" cy="50.8" r="0.5"></circle><circle cx="82.7" cy="50.8" r="0.5"></circle><circle cx="80.7" cy="50.8" r="0.5"></circle></g></g><g><g><circle cx="50.5" cy="16.7" r="0.5"></circle><circle cx="50.5" cy="18.7" r="0.5"></circle><circle cx="50.5" cy="14.7" r="0.5"></circle><circle cx="50.5" cy="12.7" r="0.5"></circle><circle cx="52.6" cy="12.7" r="0.5"></circle><circle cx="54.6" cy="12.7" r="0.5"></circle><circle cx="56.7" cy="12.7" r="0.5"></circle><circle cx="58.7" cy="12.7" r="0.5"></circle></g><g><circle cx="88.9" cy="16.7" r="0.5"></circle><circle cx="88.8" cy="18.7" r="0.5"></circle><circle cx="88.8" cy="14.8" r="0.5"></circle><circle cx="88.8" cy="12.8" r="0.5"></circle><circle cx="86.8" cy="12.8" r="0.5"></circle><circle cx="84.7" cy="12.8" r="0.5"></circle><circle cx="82.7" cy="12.8" r="0.5"></circle><circle cx="80.7" cy="12.8" r="0.5"></circle></g></g><path d="M38.2,46.9L32,42.6c-0.2-0.1-0.4-0.1-0.6,0l-6.2,4.3C25,47,25,47.2,25,47.3V54c0,0.2,0.1,0.3,0.2,0.4l6.2,4.3  c0.1,0.1,0.2,0.1,0.3,0.1s0.2,0,0.3-0.1l6.2-4.3c0.1-0.1,0.2-0.2,0.2-0.4v-6.7C38.4,47.2,38.4,47,38.2,46.9z M31.7,43.6l5.4,3.7  L31.7,51l-5.4-3.7L31.7,43.6z M26,48.3l5.2,3.6v5.5L26,53.7V48.3z M32.2,57.4v-5.5l5.2-3.6v5.5L32.2,57.4z"></path><path d="M57.2,66.2l-6.2-4.3c-0.2-0.1-0.4-0.1-0.6,0l-6.2,4.3c-0.2,0.1-0.2,0.3-0.2,0.4v6.7c0,0.2,0.1,0.3,0.2,0.4l6.2,4.3  c0.1,0.1,0.2,0.1,0.3,0.1c0.1,0,0.2,0,0.3-0.1l6.2-4.3c0.1-0.1,0.2-0.2,0.2-0.4v-6.7C57.4,66.6,57.4,66.4,57.2,66.2z M50.6,62.9  l5.4,3.7l-5.4,3.7l-5.4-3.7L50.6,62.9z M44.9,67.6l5.2,3.6v5.5l-5.2-3.6V67.6z M51.1,76.7v-5.5l5.2-3.6v5.5L51.1,76.7z"></path><path d="M38.2,85.6L32,81.2c-0.2-0.1-0.4-0.1-0.6,0l-6.2,4.3C25,85.7,25,85.9,25,86v6.7c0,0.2,0.1,0.3,0.2,0.4l6.2,4.3  c0.1,0.1,0.2,0.1,0.3,0.1s0.2,0,0.3-0.1l6.2-4.3c0.1-0.1,0.2-0.2,0.2-0.4V86C38.4,85.9,38.4,85.7,38.2,85.6z M31.7,82.3l5.4,3.7  l-5.4,3.7L26.3,86L31.7,82.3z M26,86.9l5.2,3.6V96L26,92.4V86.9z M32.2,96v-5.5l5.2-3.6v5.5L32.2,96z"></path><path d="M76.5,47.4L70.3,43c-0.2-0.1-0.4-0.1-0.6,0l-6.2,4.3c-0.2,0.1-0.2,0.3-0.2,0.4v6.7c0,0.2,0.1,0.3,0.2,0.4l6.2,4.3  c0.1,0.1,0.2,0.1,0.3,0.1s0.2,0,0.3-0.1l6.2-4.3c0.1-0.1,0.2-0.2,0.2-0.4v-6.7C76.7,47.7,76.7,47.5,76.5,47.4z M70,44.1l5.4,3.7  L70,51.5l-5.4-3.7L70,44.1z M64.2,48.7l5.2,3.6v5.5l-5.2-3.6V48.7z M70.5,57.9v-5.5l5.2-3.6v5.5L70.5,57.9z"></path><path d="M57,28l-6.2-4.3c-0.2-0.1-0.4-0.1-0.6,0L43.9,28c-0.2,0.1-0.2,0.3-0.2,0.4v6.7c0,0.2,0.1,0.3,0.2,0.4l6.2,4.3  c0.1,0.1,0.2,0.1,0.3,0.1c0.1,0,0.2,0,0.3-0.1l6.2-4.3c0.1-0.1,0.2-0.2,0.2-0.4v-6.7C57.2,28.4,57.2,28.2,57,28z M50.5,24.7l5.4,3.7  l-5.4,3.7l-5.4-3.7L50.5,24.7z M44.7,29.4L50,33v5.5l-5.2-3.6V29.4z M51,38.5V33l5.2-3.6v5.5L51,38.5z"></path><path d="M95.5,28l-6.2-4.3c-0.2-0.1-0.4-0.1-0.6,0L82.4,28c-0.2,0.1-0.2,0.3-0.2,0.4v6.7c0,0.2,0.1,0.3,0.2,0.4l6.2,4.3  c0.1,0.1,0.2,0.1,0.3,0.1c0.1,0,0.2,0,0.3-0.1l6.2-4.3c0.1-0.1,0.2-0.2,0.2-0.4v-6.7C95.7,28.4,95.7,28.2,95.5,28z M88.9,24.7  l5.4,3.7l-5.4,3.7l-5.4-3.7L88.9,24.7z M83.2,29.4l5.2,3.6v5.5l-5.2-3.6V29.4z M89.4,38.5V33l5.2-3.6v5.5L89.4,38.5z"></path><path d="M76.5,8.7l-6.2-4.3c-0.2-0.1-0.4-0.1-0.6,0l-6.2,4.3c-0.2,0.1-0.2,0.3-0.2,0.4v6.7c0,0.2,0.1,0.3,0.2,0.4l6.2,4.3  c0.1,0.1,0.2,0.1,0.3,0.1c0.1,0,0.2,0,0.3-0.1l6.2-4.3c0.1-0.1,0.2-0.2,0.2-0.4V9.1C76.7,9,76.7,8.8,76.5,8.7z M70,5.4l5.4,3.7  L70,12.8l-5.4-3.7L70,5.4z M64.2,10.1l5.2,3.6v5.5l-5.2-3.6V10.1z M70.5,19.2v-5.5l5.2-3.6v5.5L70.5,19.2z"></path></svg>